<?xml version="1.0" encoding="utf-8"?>
<!-- Generator: Adobe Illustrator 16.0.3, SVG Export Plug-In . SVG Version: 6.00 Build 0)  -->
<!DOCTYPE svg PUBLIC "-//W3C//DTD SVG 1.1//EN" "http://www.w3.org/Graphics/SVG/1.1/DTD/svg11.dtd">
<svg version="1.1" id="Capa_1" xmlns="http://www.w3.org/2000/svg" xmlns:xlink="http://www.w3.org/1999/xlink" x="0px" y="0px"
	 width="40px" height="40px" viewBox="0 0.969 40 40" enable-background="new 0 0.969 40 40" xml:space="preserve">
<g>
	<circle fill="#87A75C" cx="20" cy="20.969" r="20"/>
	<path fill="#FFFFFF" d="M9,10.969c-0.552,0-1,0.448-1,1s0.448,1,1,1V10.969z M11.222,11.969l0.98-0.197
		c-0.094-0.467-0.504-0.803-0.98-0.803V11.969z M10.687,14.376c0.109,0.542,0.636,0.892,1.177,0.783s0.892-0.636,0.783-1.178
		L10.687,14.376z M13.444,22.021c-0.552,0-1,0.447-1,1s0.448,1,1,1V22.021z M24.556,23.021v1c0.378,0,0.724-0.213,0.894-0.551
		L24.556,23.021z M29,14.179l0.894,0.449c0.155-0.31,0.14-0.679-0.042-0.974c-0.183-0.295-0.504-0.475-0.852-0.475V14.179z
		 M11.667,13.179c-0.552,0-1,0.448-1,1s0.448,1,1,1V13.179z M12.464,23.219c0.109,0.541,0.636,0.892,1.178,0.783
		c0.542-0.109,0.892-0.637,0.783-1.178L12.464,23.219z M12.647,13.982c-0.109-0.542-0.636-0.892-1.177-0.783
		c-0.542,0.109-0.893,0.636-0.783,1.178L12.647,13.982z M14.15,23.73c0.391-0.39,0.393-1.023,0.003-1.414
		c-0.39-0.393-1.022-0.394-1.414-0.004L14.15,23.73z M10.896,25.556l-0.705-0.709L10.896,25.556z M24.556,28.442
		c0.552,0,1-0.448,1-1s-0.448-1-1-1V28.442z M24.556,27.442h-1c0,0.267,0.106,0.521,0.294,0.709L24.556,27.442z M26.777,29.652
		l-0.705,0.709c0.188,0.188,0.441,0.291,0.705,0.291V29.652z M15.667,29.652l-0.865-0.502c-0.088,0.152-0.135,0.326-0.135,0.502
		H15.667z M15.667,31.863h-1c0,0.176,0.047,0.35,0.135,0.502L15.667,31.863z M9,12.969h2.222v-2H9V12.969z M10.242,12.166
		l0.445,2.21l1.96-0.395l-0.444-2.21L10.242,12.166z M13.444,24.021h11.111v-2H13.444V24.021z M25.449,23.471l4.444-8.842
		l-1.787-0.898l-4.444,8.842L25.449,23.471z M29,13.179H11.667v2H29V13.179z M14.425,22.824l-1.778-8.842l-1.96,0.395l1.777,8.842
		L14.425,22.824z M12.739,22.313l-2.548,2.534l1.411,1.418l2.548-2.534L12.739,22.313z M10.191,24.847
		c-1.34,1.333-0.38,3.596,1.491,3.596v-2c-0.04,0-0.057-0.011-0.065-0.016c-0.013-0.009-0.028-0.026-0.038-0.051
		c-0.011-0.025-0.011-0.047-0.009-0.06c0.001-0.008,0.005-0.025,0.032-0.052L10.191,24.847z M11.682,28.442h12.874v-2H11.682V28.442
		z M25.556,27.442c0-0.663,0.542-1.21,1.222-1.21v-2c-1.773,0-3.222,1.432-3.222,3.21H25.556z M26.777,26.232
		c0.681,0,1.223,0.547,1.223,1.21h2c0-1.778-1.447-3.21-3.223-3.21V26.232z M28,27.442c0,0.663-0.542,1.21-1.223,1.21v2
		c1.775,0,3.223-1.432,3.223-3.21H28z M27.482,28.943l-2.222-2.21l-1.411,1.418l2.223,2.21L27.482,28.943z M16.531,30.154
		c0.275-0.474,0.84-0.709,1.377-0.564l0.515-1.934c-1.405-0.374-2.892,0.236-3.622,1.494L16.531,30.154z M17.909,29.59
		c0.537,0.143,0.905,0.624,0.905,1.168h2c0-1.457-0.983-2.727-2.39-3.102L17.909,29.59z M18.813,30.758
		c0,0.545-0.368,1.025-0.905,1.169l0.515,1.933c1.406-0.375,2.39-1.645,2.39-3.102H18.813z M17.909,31.927
		c-0.538,0.144-1.102-0.091-1.377-0.565l-1.729,1.004c0.73,1.259,2.217,1.869,3.622,1.494L17.909,31.927z M16.667,31.863v-2.211h-2
		v2.211H16.667z"/>
	<circle fill="#FFFFFF" cx="29" cy="13.969" r="6"/>
	<path fill="#87A75C" d="M31.526,13.495h-2.053v-2.053c0-0.259-0.208-0.474-0.474-0.474c-0.259,0-0.474,0.208-0.474,0.474v2.053
		h-2.053c-0.259,0-0.474,0.208-0.474,0.474c0,0.133,0.051,0.246,0.139,0.334c0.089,0.089,0.203,0.139,0.335,0.139h2.053v2.053
		c0,0.132,0.05,0.246,0.14,0.335c0.088,0.088,0.201,0.139,0.334,0.139c0.259,0,0.474-0.208,0.474-0.474v-2.053h2.053
		c0.259,0,0.474-0.208,0.474-0.474C32,13.71,31.791,13.495,31.526,13.495z"/>
</g>
</svg>
