<?xml version="1.0" encoding="utf-8"?>
<!-- Generator: Adobe Illustrator 16.0.3, SVG Export Plug-In . SVG Version: 6.00 Build 0)  -->
<!DOCTYPE svg PUBLIC "-//W3C//DTD SVG 1.1//EN" "http://www.w3.org/Graphics/SVG/1.1/DTD/svg11.dtd">
<svg version="1.1" id="Capa_1" xmlns="http://www.w3.org/2000/svg" xmlns:xlink="http://www.w3.org/1999/xlink" x="0px" y="0px"
	 width="150px" height="80px" viewBox="0 0 150 80" enable-background="new 0 0 150 80" xml:space="preserve">
<g>
	<g>
		<path fill="#87A75D" d="M14.813,36.604l-1.695,2.005c-1.411-1.565-2.791-2.347-4.137-2.347c-0.856,0-1.59,0.321-2.201,0.97
			c-0.61,0.645-0.916,1.398-0.916,2.26c0,0.761,0.251,1.486,0.755,2.177c0.502,0.704,1.561,1.531,3.173,2.477
			c1.961,1.165,3.296,2.288,4.002,3.362c0.69,1.095,1.038,2.322,1.038,3.687c0,1.926-0.591,3.555-1.774,4.891
			c-1.182,1.336-2.661,2.006-4.434,2.006c-1.183,0-2.311-0.294-3.388-0.882c-1.074-0.591-1.965-1.403-2.668-2.436l1.657-2.156
			c1.346,1.738,2.776,2.606,4.286,2.606c1.057,0,1.957-0.388,2.7-1.162c0.743-0.777,1.115-1.688,1.115-2.738
			c0-0.861-0.246-1.628-0.736-2.305c-0.492-0.659-1.6-1.493-3.322-2.501c-1.851-1.089-3.11-2.17-3.776-3.23
			c-0.668-1.063-1.001-2.277-1.001-3.642c0-1.782,0.53-3.265,1.594-4.441c1.063-1.177,2.406-1.767,4.029-1.767
			C11,33.437,12.901,34.494,14.813,36.604z"/>
		<path fill="#87A75D" d="M36.742,49.709l2.223,1.335c-0.729,1.637-1.572,2.958-2.528,3.968c-0.955,1.003-2.029,1.767-3.224,2.291
			c-1.194,0.526-2.546,0.788-4.055,0.788c-3.344,0-5.958-1.253-7.845-3.76c-1.885-2.508-2.827-5.342-2.827-8.504
			c0-2.972,0.797-5.623,2.395-7.95c2.023-2.959,4.732-4.44,8.127-4.44c3.496,0,6.286,1.515,8.371,4.548
			c1.484,2.142,2.239,4.813,2.264,8.016H21.199c0.051,2.725,0.811,4.957,2.283,6.696c1.47,1.741,3.288,2.613,5.452,2.613
			c1.042,0,2.058-0.205,3.044-0.62c0.987-0.415,1.826-0.967,2.519-1.653C35.19,52.349,35.938,51.24,36.742,49.709z M36.742,43.392
			c-0.352-1.607-0.865-2.895-1.538-3.857c-0.672-0.963-1.562-1.736-2.668-2.323c-1.108-0.593-2.27-0.886-3.49-0.886
			c-2.013,0-3.741,0.739-5.187,2.219c-1.057,1.081-1.855,2.692-2.396,4.848H36.742z"/>
		<path fill="#87A75D" d="M44.54,34.041h2.637v4.049c0.917-1.492,1.862-2.584,2.829-3.273c1.335-0.918,2.738-1.379,4.207-1.379
			c0.994,0,1.935,0.223,2.829,0.668c0.893,0.447,1.621,1.038,2.189,1.781c0.566,0.739,1.054,1.797,1.469,3.174
			c0.879-1.834,1.975-3.233,3.29-4.189c1.318-0.956,2.733-1.433,4.249-1.433c1.415,0,2.665,0.41,3.749,1.23
			c1.085,0.817,1.89,1.958,2.414,3.423c0.525,1.466,0.792,3.667,0.792,6.596v12.801h-2.697V44.686c0-2.515-0.154-4.241-0.467-5.18
			c-0.313-0.941-0.848-1.701-1.604-2.273c-0.761-0.576-1.664-0.865-2.713-0.865c-1.277,0-2.446,0.433-3.502,1.294
			c-1.062,0.861-1.832,2.013-2.32,3.45c-0.488,1.437-0.733,3.837-0.733,7.194v9.181H58.52V45.484c0-2.832-0.154-4.751-0.464-5.766
			c-0.307-1.015-0.843-1.823-1.607-2.435c-0.769-0.61-1.678-0.917-2.732-0.917c-1.22,0-2.362,0.422-3.422,1.263
			c-1.061,0.837-1.846,1.971-2.354,3.394c-0.509,1.42-0.764,3.597-0.764,6.529v9.934H44.54V34.041z"/>
		<path fill="#87A75D" d="M81.666,24.387c0.601,0,1.112,0.245,1.534,0.732c0.426,0.489,0.64,1.076,0.64,1.767
			c0,0.675-0.214,1.257-0.64,1.745c-0.422,0.489-0.934,0.733-1.534,0.733c-0.589,0-1.096-0.245-1.52-0.733
			c-0.426-0.488-0.64-1.07-0.64-1.745c0-0.691,0.214-1.278,0.64-1.767C80.57,24.632,81.077,24.387,81.666,24.387z M80.355,34.041
			h2.637v23.446h-2.637V34.041z"/>
		<path fill="#87A75D" d="M86.721,25.788h3.187l7.092,13.072l6.98-13.072h3.202l-8.78,16.551v15.147h-2.73V42.339L86.721,25.788z"/>
		<path fill="#87A75D" d="M131.729,34.041v23.446h-2.599v-4.028c-1.104,1.535-2.344,2.693-3.722,3.468
			c-1.373,0.777-2.878,1.165-4.51,1.165c-2.902,0-5.378-1.203-7.434-3.611c-2.055-2.406-3.079-5.332-3.079-8.779
			c0-3.375,1.035-6.264,3.108-8.663c2.071-2.4,4.565-3.6,7.479-3.6c1.684,0,3.205,0.41,4.567,1.23
			c1.365,0.817,2.562,2.046,3.59,3.682v-4.308H131.729z M121.188,36.347c-1.464,0-2.821,0.411-4.063,1.238
			c-1.241,0.826-2.229,1.984-2.966,3.477c-0.732,1.493-1.099,3.069-1.099,4.737c0,1.649,0.37,3.227,1.109,4.733
			c0.739,1.506,1.733,2.679,2.982,3.519c1.249,0.841,2.588,1.26,4.019,1.26c1.444,0,2.812-0.414,4.103-1.249
			c1.293-0.833,2.287-1.956,2.982-3.38c0.697-1.42,1.046-3.021,1.046-4.799c0-2.714-0.782-4.981-2.345-6.803
			C125.396,37.26,123.474,36.347,121.188,36.347z"/>
	</g>
</g>
<g>
	<g>
		<path fill="#87A75D" d="M148.089,14.973c-0.107,0.645-0.217,1.297-0.338,1.941c-0.267,1.437-0.544,2.884-1.093,4.226
			c-0.388,0.972-0.726,1.983-1.35,2.867c-0.446,0.625-0.732,1.36-1.228,1.962c-0.705,0.867-1.587,1.545-2.508,2.161
			c-0.416,0.28-0.941,0.417-1.43,0.57c-1.192,0.381-2.32,0.906-3.491,1.333c-0.444,0.159-0.796,0.496-1.229,0.696
			c-0.704,0.321-1.063,0.173-1.22-0.564c-0.318-1.474-0.251-2.951,0.052-4.409c0.266-1.277,0.356-2.569,0.524-3.851
			c0.129-1.01,0.429-1.962,1.038-2.82c0.533-0.744,0.994-1.526,1.604-2.223c1.054-1.218,2.334-2.098,3.719-2.863
			c2.128-1.166,4.27-2.303,6.297-3.636c0.802-0.519,1.132-0.299,1.203,0.691c0.087,1.2-0.171,2.339-0.517,3.467
			C147.96,14.661,148.116,14.825,148.089,14.973z"/>
		<path fill="#87A75D" d="M148.089,14.973c-0.08-0.111-0.303-0.079-0.286-0.249c0.014-0.174,0.198-0.15,0.321-0.203
			C148.151,14.676,148.196,14.83,148.089,14.973z"/>
		<path fill="#FFFFFF" d="M136.833,25.988c0.185,0.037,0.436,0.098,0.259,0.328c-0.172,0.229-0.137,0.537-0.354,0.732
			c-0.503,0.41-0.827,0.921-0.89,1.579c-0.08,0.227-0.16,0.449-0.236,0.669c-0.08-0.045-0.154-0.139-0.217,0.036
			c-0.048,0.134-0.163,0.191-0.316,0.137c-0.085-0.108-0.252-0.183-0.238-0.328c0.014-0.253,0.224-0.026,0.311-0.101
			c0.063-0.058,0.158-0.194,0.137-0.228c-0.165-0.275,0.209-0.473,0.065-0.786c-0.167,0.068-0.129,0.34-0.397,0.364
			c-0.177-0.765-0.129-1.531-0.007-2.304c0.031,0,0.059,0.002,0.088-0.004c0.056,0.019,0.114,0.048,0.157,0.092
			c0.038,0.048,0.052,0.104,0.058,0.162c0.028,0.132-0.115,0.283,0.043,0.398c0.072,0.324-0.293,0.714,0.136,0.985
			c0.203,0.054,0.217-0.083,0.23-0.221c0.167-0.604,0.517-1.125,0.799-1.667c0.094-0.181,0.265-0.332,0.313-0.538
			c0.031-0.125,0.102-0.242,0.223-0.217c0.189,0.042,0.066,0.246,0.129,0.353c0.021,0.099-0.014,0.161-0.101,0.202
			c-0.177,0.057-0.227,0.186-0.185,0.359L136.833,25.988z"/>
		<path fill="#FFFFFF" d="M144.488,13.355c-0.027,0.127-0.115,0.228-0.236,0.225c-0.437-0.029-0.697,0.413-1.141,0.403
			c-0.282-0.005-0.181,0.319-0.29,0.483c-0.286-0.319-0.236-0.523,0.153-0.726c0.343-0.193,0.653-0.461,1.061-0.524
			C144.158,13.344,144.354,13.262,144.488,13.355z"/>
		<path fill="#FFFFFF" d="M141.695,17.758c0.027-0.054,0.06-0.107,0.087-0.164c0.245-0.408,0.454-0.844,0.841-1.149
			c0.171-0.08,0.272-0.216,0.327-0.389c0.134-0.176,0.23-0.171,0.297,0.048c-0.373,0.523-0.753,1.045-1.144,1.57
			c-0.137,0.186-0.293,0.357-0.443,0.535c-0.108,0.098-0.168,0.034-0.216-0.057C141.431,17.956,141.58,17.872,141.695,17.758z"/>
		<path fill="#FFFFFF" d="M138.493,17.057c-0.426,0.532-0.857,1.064-1.288,1.598c-0.121,0.054-0.188,0.016-0.188-0.124
			c0.311-0.57,0.733-1.055,1.179-1.527C138.319,16.872,138.435,16.805,138.493,17.057z"/>
		<path fill="#FFFFFF" d="M141.695,17.758c-0.08,0.119-0.15,0.23-0.223,0.346c-0.036,0.117-0.058,0.254-0.23,0.216
			c-0.151-0.119-0.237-0.017-0.36,0.068c-0.277,0.202-0.414,0.558-0.746,0.701v0.001c0.143-0.549,0.625-0.85,0.922-1.285
			C141.242,17.53,141.486,17.85,141.695,17.758z"/>
		<path fill="#FFFFFF" d="M136.766,24.227c0.346-0.804,0.766-1.57,1.253-2.295c0.063,0.031,0.15,0.021,0.186,0.104
			c-0.453,0.542-0.653,1.231-1.047,1.805C137.049,23.999,136.977,24.173,136.766,24.227L136.766,24.227z"/>
		<path fill="#FFFFFF" d="M138.204,22.037c-0.063-0.037-0.129-0.07-0.186-0.104c0.342-0.52,0.681-1.038,1.019-1.56
			c0.095-0.139,0.181-0.273,0.346-0.32v0.001C139.152,20.809,138.616,21.387,138.204,22.037z"/>
		<path fill="#FFFFFF" d="M140.785,21.083c-0.095,0.7-0.598,1.147-0.987,1.669C139.965,22.096,140.415,21.615,140.785,21.083z"/>
		<path fill="#FFFFFF" d="M141.302,25.549c0.041-0.328,0.352-0.484,0.487-0.759c0.172-0.343,0.43-0.293,0.732,0.009
			c-0.533,0.083-0.767,0.488-1.049,0.846C141.401,25.636,141.343,25.603,141.302,25.549z"/>
		<path fill="#FFFFFF" d="M146.366,14.145c-0.311,0.397-0.475,0.906-0.942,1.363c0.042-0.693,0.415-1.074,0.739-1.472
			C146.3,13.943,146.353,14.003,146.366,14.145z"/>
		<path fill="#FFFFFF" d="M144.949,17.83c-0.264,0.577-0.547,1.152-0.818,1.727c-0.043,0.071-0.109,0.083-0.179,0.035
			c0.179-0.706,0.517-1.339,0.938-1.925c0.054,0.021,0.073,0.054,0.073,0.097C144.971,17.8,144.963,17.83,144.949,17.83z"/>
		<path fill="#FFFFFF" d="M135.504,24.45c0.034,0.104,0.331,0.06,0.177,0.267c-0.204,0.283-0.223,0.588-0.129,0.909
			c-0.185,0.218-0.386,0.214-0.582,0.015c-0.006-0.021-0.021-0.054-0.006-0.066c0.274-0.408,0.288-0.439,0.31-0.909
			C135.329,24.573,135.323,24.407,135.504,24.45z"/>
		<path fill="#FFFFFF" d="M139.863,27.166c0.318-0.376,0.626-0.753,0.999-1.071c0.129-0.066,0.195-0.017,0.195,0.119
			c-0.311,0.378-0.632,0.75-1.008,1.062C139.927,27.345,139.871,27.296,139.863,27.166z"/>
		<path fill="#FFFFFF" d="M143.879,22.262c0.094-0.537,0.352-1.015,0.596-1.495c0.027-0.068,0.074-0.082,0.129-0.033
			c-0.177,0.576-0.271,1.188-0.651,1.69C143.851,22.399,143.829,22.345,143.879,22.262z"/>
		<path fill="#FFFFFF" d="M135.849,28.627c-0.1-0.023-0.182-0.098-0.143-0.19c0.22-0.477,0.43-0.964,0.788-1.355
			c0.073-0.077,0.15-0.103,0.244-0.033C136.379,27.541,136.079,28.067,135.849,28.627z"/>
		<path fill="#FFFFFF" d="M137.974,23.278c0.265-0.29,0.387-0.666,0.596-0.997c0.115-0.188,0.182-0.424,0.439-0.49l0,0
			c-0.202,0.574-0.516,1.093-0.861,1.589C138.025,23.461,137.966,23.425,137.974,23.278z"/>
		<path fill="#FFFFFF" d="M135.504,24.45c-0.073,0.072-0.15,0.143-0.23,0.216c-0.007-0.522,0.056-1.023,0.366-1.475
			C135.696,23.62,135.552,24.032,135.504,24.45z"/>
		<path fill="#FFFFFF" d="M145.968,20.324c-0.122,0.523-0.32,1.008-0.732,1.407c0.153-0.445,0.311-0.884,0.467-1.329
			C145.77,20.308,145.853,20.273,145.968,20.324z"/>
		<path fill="#FFFFFF" d="M142.623,16.445c-0.188,0.452-0.502,0.806-0.848,1.148c-0.015-0.052-0.039-0.1-0.059-0.154l0,0
			c0.167-0.113,0.181-0.314,0.25-0.474C142.104,16.689,142.285,16.466,142.623,16.445z"/>
		<path fill="#FFFFFF" d="M147.227,14.5c-0.086,0.471-0.201,0.928-0.711,1.312c0.194-0.499,0.258-0.926,0.529-1.277
			C147.098,14.46,147.154,14.45,147.227,14.5z"/>
		<path fill="#FFFFFF" d="M143.879,22.262c0.021,0.052,0.041,0.108,0.073,0.162c-0.223,0.492-0.439,0.985-0.799,1.402
			c-0.094-0.071-0.129-0.164-0.069-0.277C143.425,23.17,143.533,22.64,143.879,22.262z"/>
		<path fill="#FFFFFF" d="M145.431,12.49c0.244-0.365,0.678-0.447,1.026-0.659c-0.179,0.383-0.579,0.505-0.87,0.751
			C145.525,12.571,145.474,12.54,145.431,12.49z"/>
		<path fill="#FFFFFF" d="M145.431,12.49c0.049,0.029,0.108,0.063,0.156,0.092c-0.313,0.221-0.638,0.438-0.997,0.595
			c-0.08,0.007-0.143-0.019-0.178-0.092C144.713,12.823,145.078,12.667,145.431,12.49z"/>
		<path fill="#FFFFFF" d="M143.247,16.104c-0.086-0.094-0.188-0.083-0.297-0.048c0.134-0.34,0.447-0.496,0.736-0.78
			C143.735,15.72,143.384,15.851,143.247,16.104z"/>
		<path fill="#FFFFFF" d="M137.018,18.531c0.066,0.042,0.122,0.084,0.188,0.124c-0.121,0.272-0.278,0.508-0.582,0.821
			C136.603,18.995,136.738,18.741,137.018,18.531z"/>
		<path fill="#FFFFFF" d="M141.538,23.4c0.265-0.396,0.442-0.858,0.862-1.143c0.048,0.019,0.069,0.049,0.069,0.085
			c-0.007,0.035-0.007,0.058-0.021,0.06c-0.272,0.305-0.394,0.724-0.745,0.96C141.667,23.447,141.607,23.461,141.538,23.4z"/>
		<path fill="#FFFFFF" d="M138.493,17.057c-0.088-0.101-0.188-0.078-0.297-0.054c0.182-0.339,0.582-0.422,0.82-0.71
			c0.042-0.05,0.094-0.066,0.157-0.05c0.052,0.05,0.059,0.101,0.014,0.162C138.957,16.62,138.731,16.841,138.493,17.057z"/>
		<path fill="#FFFFFF" d="M143.952,19.591c0.063-0.01,0.121-0.021,0.179-0.035c-0.158,0.371-0.321,0.736-0.598,1.042
			c-0.028,0.077-0.083,0.086-0.144,0.037C143.513,20.254,143.722,19.917,143.952,19.591z"/>
		<path fill="#FFFFFF" d="M144.395,17.085c-0.076,0.23-0.23,0.391-0.407,0.537C143.829,17.181,143.829,17.181,144.395,17.085z"/>
		<path fill="#FFFFFF" d="M140.072,25.345c-0.209,0.267-0.396,0.555-0.783,0.81c0.094-0.464,0.411-0.65,0.574-0.93
			C139.965,25.216,140.028,25.252,140.072,25.345z"/>
		<path fill="#FFFFFF" d="M140.072,25.345c-0.072-0.042-0.138-0.079-0.209-0.12c0.15-0.232,0.286-0.469,0.53-0.625
			c0.129-0.075,0.189-0.023,0.211,0.111C140.432,24.923,140.251,25.132,140.072,25.345z"/>
		<path fill="#FFFFFF" d="M142.448,22.403c-0.021-0.047-0.028-0.096-0.048-0.145c0.135-0.38,0.324-0.736,0.568-1.055
			c0.056,0.014,0.083,0.04,0.077,0.082c0,0.033-0.008,0.059-0.029,0.062C142.917,21.744,142.692,22.083,142.448,22.403z"/>
		<path fill="#FFFFFF" d="M141.242,18.32c0.073-0.072,0.153-0.143,0.23-0.216c0.058,0.037,0.121,0.072,0.188,0.106
			c-0.224,0.258-0.331,0.619-0.663,0.787c-0.121,0.082-0.178,0.026-0.178-0.108C140.983,18.723,141.2,18.588,141.242,18.32z"/>
		<path fill="#FFFFFF" d="M136.156,21.608c0.258-0.318,0.324-0.773,0.738-0.97l0,0c-0.113,0.394-0.319,0.733-0.558,1.064
			C136.243,21.722,136.208,21.644,136.156,21.608z"/>
		<path fill="#FFFFFF" d="M141.538,23.4c0.05-0.013,0.107-0.026,0.165-0.037c-0.043,0.413-0.401,0.559-0.667,0.774
			c-0.066-0.012-0.088-0.04-0.08-0.075c0-0.04,0.014-0.058,0.027-0.061c0.028-0.188,0.129-0.324,0.318-0.385
			c0.048-0.045,0.083-0.1,0.121-0.157C141.458,23.436,141.492,23.417,141.538,23.4z"/>
		<path fill="#FFFFFF" d="M137.918,23.594c-0.087,0.361-0.317,0.644-0.534,0.93c0.052-0.383,0.14-0.743,0.526-0.933L137.918,23.594z
			"/>
		<path fill="#FFFFFF" d="M145.79,20.224c0.088-0.336,0.073-0.72,0.488-0.875v0.003c-0.049,0.309-0.087,0.625-0.359,0.843
			C145.892,20.27,145.846,20.276,145.79,20.224z"/>
		<path fill="#FFFFFF" d="M142.393,14.732c-0.188-0.024-0.359-0.047-0.555-0.077c0.475-0.445,0.475-0.445,0.656-0.091
			C142.456,14.614,142.42,14.673,142.393,14.732z"/>
		<path fill="#FFFFFF" d="M140.819,18.888c0.057,0.037,0.123,0.072,0.178,0.108c-0.23,0.248-0.299,0.631-0.659,0.774l0,0
			C140.426,19.438,140.589,19.148,140.819,18.888z"/>
		<path fill="#FFFFFF" d="M144.978,17.502c-0.05-0.34,0.143-0.568,0.381-0.781c-0.029,0.3-0.057,0.605-0.346,0.798L144.978,17.502z"
			/>
		<path fill="#FFFFFF" d="M134.97,25.641c0.196,0.047,0.392,0.052,0.582-0.015c-0.069,0.225-0.143,0.446-0.215,0.667
			c-0.027-0.001-0.057-0.003-0.085-0.005c-0.038-0.078-0.072-0.155-0.129-0.216c-0.052-0.096-0.167-0.157-0.115-0.295
			C134.994,25.733,134.988,25.688,134.97,25.641z"/>
		<path fill="#FFFFFF" d="M135.079,29.469c0.223-0.077,0.244-0.315,0.373-0.469c0.115,0.07,0.121,0.196,0.16,0.296
			c-0.102,0.095-0.168,0.214-0.203,0.348c-0.08,0.117-0.177,0.144-0.292,0.064c-0.088-0.066-0.088-0.155-0.038-0.248V29.469z"/>
		<path fill="#FFFFFF" d="M139.477,15.875c0.164-0.255,0.443-0.286,0.774-0.518c-0.129,0.425-0.46,0.418-0.589,0.623
			C139.592,15.952,139.512,15.958,139.477,15.875z"/>
		<path fill="#FFFFFF" d="M143.017,21.347c-0.014-0.047-0.027-0.096-0.048-0.144c0.042-0.265,0.272-0.387,0.421-0.567
			c0.05-0.008,0.096-0.024,0.144-0.037C143.513,20.952,143.255,21.14,143.017,21.347z"/>
		<path fill="#FFFFFF" d="M140.983,24.002c0.014,0.043,0.028,0.089,0.053,0.136c-0.174,0.177-0.223,0.435-0.432,0.574
			c-0.068-0.038-0.137-0.074-0.211-0.111C140.522,24.332,140.726,24.142,140.983,24.002z"/>
		<path fill="#FFFFFF" d="M140.338,19.771c-0.044,0.263-0.202,0.464-0.373,0.73C139.979,20.047,139.979,20.05,140.338,19.771
			L140.338,19.771z"/>
		<path fill="#FFFFFF" d="M142.982,24.178c-0.065,0.139-0.073,0.38-0.304,0.256c-0.05-0.029-0.278-0.385,0.08-0.493
			c0.07,0.044,0.144,0.084,0.186,0.158C142.961,24.128,142.969,24.152,142.982,24.178z"/>
		<path fill="#FFFFFF" d="M144.604,20.733l-0.063,0.018l-0.066,0.016c0.115-0.237,0.066-0.57,0.388-0.701l0,0
			C144.928,20.343,144.793,20.551,144.604,20.733z"/>
		<path fill="#FFFFFF" d="M141.058,26.213c-0.066-0.038-0.129-0.078-0.195-0.119c0.149-0.181,0.295-0.364,0.439-0.545
			c0.056,0.032,0.113,0.063,0.171,0.096C141.336,25.835,141.2,26.025,141.058,26.213z"/>
		<path fill="#FFFFFF" d="M136.17,22.187c-0.056,0.223-0.144,0.436-0.388,0.649c0-0.314,0.096-0.534,0.203-0.75
			C136.073,22.069,136.114,22.143,136.17,22.187z"/>
		<path fill="#FFFFFF" d="M146.366,14.145c-0.074-0.039-0.137-0.072-0.203-0.108c0.15-0.183,0.311-0.37,0.461-0.556
			C146.672,13.785,146.543,13.976,146.366,14.145z"/>
		<path fill="#FFFFFF" d="M144.412,13.084c0.063,0.029,0.122,0.059,0.178,0.092l0.021,0.019c-0.049,0.047-0.07,0.114-0.115,0.164
			l-0.008-0.005c-0.143-0.072-0.445,0.378-0.453-0.14C144.158,13.171,144.287,13.126,144.412,13.084z"/>
		<path fill="#FFFFFF" d="M136.658,28.392c0.175-0.197,0.269-0.537,0.648-0.33c-0.038,0.063-0.08,0.073-0.135,0.04
			c-0.074,0.11-0.147,0.224-0.209,0.339C136.867,28.408,136.746,28.488,136.658,28.392z"/>
		<path fill="#FFFFFF" d="M137.024,25.631c0.038-0.067,0.067-0.135,0.101-0.198c0.162,0.072,0.36,0.033,0.489,0.167
			c-0.028,0.056-0.056,0.114-0.083,0.167C137.35,25.746,137.172,25.75,137.024,25.631z"/>
		<path fill="#FFFFFF" d="M143.084,23.548c0.027,0.092,0.048,0.183,0.069,0.277c-0.008,0.142-0.069,0.257-0.171,0.353l-0.021-0.011
			c-0.094-0.068-0.132-0.152-0.073-0.262C142.835,23.721,142.902,23.601,143.084,23.548z"/>
		<path fill="#FFFFFF" d="M146.278,19.349c-0.06-0.211-0.014-0.401,0.165-0.711c0.02,0.357,0.159,0.591-0.165,0.714V19.349z"/>
		<path fill="#FFFFFF" d="M144.862,20.066c-0.007-0.093-0.021-0.185,0-0.276c0.021-0.087,0.101-0.188,0.194-0.157
			c0.158,0.058,0.096,0.194,0.029,0.277C145.029,19.979,144.936,20.018,144.862,20.066L144.862,20.066z"/>
		<path fill="#FFFFFF" d="M139.354,19.921c0.179-0.202,0.366-0.41,0.552-0.616l0,0c0.059,0.265-0.035,0.443-0.287,0.529
			C139.553,19.935,139.463,19.964,139.354,19.921z"/>
		<path fill="#FFFFFF" d="M137.279,19.932c-0.059,0.273-0.188,0.508-0.385,0.706l0,0c-0.055-0.338,0.061-0.573,0.385-0.703V19.932z"
			/>
		<path fill="#FFFFFF" d="M136.658,28.392c0.107-0.021,0.217-0.044,0.305,0.049c-0.061,0.078-0.123,0.16-0.189,0.24
			c-0.121,0.07-0.258,0.211-0.313-0.056C136.523,28.547,136.596,28.468,136.658,28.392z"/>
		<path fill="#FFFFFF" d="M139.863,27.166c0.063,0.035,0.129,0.074,0.187,0.11c-0.063,0.13-0.106,0.373-0.294,0.256
			C139.567,27.417,139.756,27.272,139.863,27.166z"/>
		<path fill="#FFFFFF" d="M137.37,19.759c-0.015-0.092-0.056-0.187-0.05-0.269c0.014-0.131,0.102-0.236,0.23-0.178
			c0.102,0.042,0.042,0.162,0,0.232C137.499,19.621,137.43,19.687,137.37,19.759L137.37,19.759z"/>
		<path fill="#FFFFFF" d="M139.477,15.875c0.063,0.035,0.123,0.066,0.186,0.104c-0.158,0.136-0.314,0.28-0.475,0.426
			c-0.008-0.047-0.021-0.089-0.035-0.135c-0.042-0.021-0.056-0.045-0.056-0.078c0-0.033,0.006-0.049,0.021-0.056l0,0
			c0.028-0.125,0.178-0.117,0.237-0.216C139.391,15.906,139.432,15.894,139.477,15.875z"/>
		<path fill="#FFFFFF" d="M136.17,22.187c-0.063-0.032-0.129-0.068-0.185-0.101c0.049-0.163,0.107-0.319,0.164-0.478
			c0.066,0.031,0.122,0.059,0.188,0.094C136.278,21.86,136.229,22.022,136.17,22.187z"/>
		<path fill="#FFFFFF" d="M135.079,29.461c0.044,0.172,0.153,0.249,0.33,0.183c-0.048,0.153-0.149,0.252-0.306,0.164
			C134.942,29.722,134.964,29.585,135.079,29.461z"/>
		<path fill="#FFFFFF" d="M138.025,18.808c-0.03,0.039-0.052,0.11-0.094,0.143c-0.06,0.042-0.129,0.026-0.156-0.047
			c-0.032-0.073,0.014-0.127,0.083-0.154C137.918,18.723,137.974,18.718,138.025,18.808z"/>
		<path fill="#FFFFFF" d="M136.46,28.625c0.094,0.091,0.206,0.068,0.313,0.056c-0.063,0.058-0.115,0.138-0.185,0.173
			c-0.081,0.036-0.224,0.061-0.244,0.028C136.265,28.765,136.358,28.684,136.46,28.625z"/>
		<path fill="#FFFFFF" d="M135.661,27.499c0.223,0.161,0.035,0.286-0.063,0.362c-0.101,0.076-0.121-0.064-0.167-0.141
			C135.511,27.647,135.591,27.577,135.661,27.499z"/>
		<path fill="#FFFFFF" d="M144.908,16.206c0.02-0.164,0.055-0.323,0.23-0.424C145.295,16.06,145.064,16.11,144.908,16.206
			L144.908,16.206z"/>
		<path fill="#FFFFFF" d="M147.227,14.5c-0.059,0.007-0.121,0.023-0.174,0.033c-0.008-0.021-0.014-0.044-0.014-0.066
			c0.014-0.122,0-0.321,0.16-0.29C147.363,14.208,147.29,14.38,147.227,14.5z"/>
		<path fill="#FFFFFF" d="M139.11,21.612c0.014-0.066,0.028-0.136,0.056-0.197c0.052-0.082,0.129-0.164,0.217-0.071
			c0.08,0.082,0.014,0.164-0.08,0.209c-0.063,0.024-0.129,0.039-0.2,0.062L139.11,21.612z"/>
		<path fill="#FFFFFF" d="M139.354,15.92c-0.038,0.127-0.129,0.183-0.237,0.216c-0.037-0.073-0.166-0.134-0.08-0.217
			C139.124,15.826,139.246,15.926,139.354,15.92z"/>
		<path fill="#FFFFFF" d="M135.295,26.735c-0.266-0.072-0.129-0.262-0.122-0.414c0.021-0.072,0.065-0.083,0.122-0.047l0.042,0.019
			C135.323,26.44,135.31,26.591,135.295,26.735z"/>
		<path fill="#FFFFFF" d="M138.8,26.749c-0.027,0.033-0.041,0.087-0.068,0.096c-0.082,0.023-0.123-0.025-0.109-0.102
			c0-0.031,0.056-0.073,0.084-0.073C138.737,26.668,138.765,26.719,138.8,26.749z"/>
		<path fill="#FFFFFF" d="M135.008,25.777c0.071,0.082,0.144,0.159,0.225,0.233c-0.024,0.058-0.06,0.087-0.115,0.107
			c-0.053,0.005-0.109-0.004-0.161-0.026l-0.007-0.004C134.928,25.978,134.922,25.872,135.008,25.777z"/>
		<path fill="#FFFFFF" d="M137.974,23.278c0.06,0.033,0.115,0.068,0.174,0.102c-0.031,0.122-0.122,0.176-0.229,0.214l-0.008-0.003
			C137.883,23.476,137.872,23.367,137.974,23.278z"/>
		<path fill="#FFFFFF" d="M139.354,19.921c0.083-0.029,0.171-0.058,0.265-0.087c-0.027,0.13-0.121,0.183-0.236,0.22v-0.001
			C139.375,20.011,139.361,19.964,139.354,19.921z"/>
		<path fill="#FFFFFF" d="M140.136,19.089c-0.028,0.132-0.122,0.183-0.229,0.216l0,0c0.021-0.125,0.114-0.181,0.229-0.214V19.089z"
			/>
		<path fill="#FFFFFF" d="M144.949,17.83c-0.021-0.058-0.035-0.112-0.06-0.164c0.032-0.058,0.06-0.11,0.088-0.164l0.035,0.016
			C145.037,17.631,145.029,17.737,144.949,17.83z"/>
		<path fill="#FFFFFF" d="M137.172,28.102c0.041-0.016,0.083-0.029,0.135-0.04c0.021,0.024,0.043,0.052,0.07,0.08
			C137.293,28.214,137.227,28.179,137.172,28.102z"/>
		<path fill="#FFFFFF" d="M142.888,23.906c0.021,0.089,0.049,0.174,0.073,0.262c-0.146-0.007-0.181-0.108-0.202-0.227
			C142.802,23.936,142.846,23.922,142.888,23.906z"/>
		<path fill="#FFFFFF" d="M136.766,24.227c0,0.066,0.008,0.129,0.008,0.193C136.617,24.354,136.725,24.29,136.766,24.227
			L136.766,24.227z"/>
		<path fill="#FFFFFF" d="M141.242,22.516c0.014-0.007,0.038-0.032,0.052-0.032c0.056,0,0.069,0.026,0.035,0.07
			c-0.014,0.007-0.043,0.009-0.057,0.005C141.256,22.554,141.249,22.532,141.242,22.516z"/>
		<path fill="#FFFFFF" d="M145.79,20.224c0.049-0.003,0.088-0.017,0.129-0.029c0.021,0.04,0.035,0.085,0.049,0.129
			c-0.09,0.026-0.178,0.052-0.266,0.078C145.731,20.343,145.763,20.284,145.79,20.224z"/>
		<path fill="#FFFFFF" d="M144.908,16.206c0.02,0.064,0.049,0.129-0.008,0.195c-0.011,0.004-0.059-0.01-0.059-0.024
			C144.799,16.301,144.842,16.246,144.908,16.206L144.908,16.206z"/>
		<path fill="#FFFFFF" d="M137.279,19.935c0.027-0.061,0.063-0.119,0.091-0.176l0,0c-0.028,0.058-0.063,0.115-0.091,0.173V19.935z"
			/>
		<path fill="#FFFFFF" d="M141.717,17.439c-0.021-0.005-0.057-0.008-0.057-0.012C141.653,17.375,141.682,17.383,141.717,17.439
			L141.717,17.439z"/>
		<path fill="#FFFFFF" d="M141.423,23.459c-0.044,0.052-0.08,0.103-0.121,0.157C141.343,23.563,141.379,23.512,141.423,23.459z"/>
		<path fill="#FFFFFF" d="M137.531,25.769c0.027-0.056,0.055-0.114,0.083-0.167C137.628,25.677,137.601,25.739,137.531,25.769z"/>
		<path fill="#FFFFFF" d="M139.103,21.615c-0.03,0.055-0.058,0.114-0.094,0.176l0,0c0.036-0.062,0.063-0.121,0.102-0.178
			L139.103,21.615z"/>
		<path fill="#FFFFFF" d="M142.393,14.732c0-0.077,0.027-0.134,0.102-0.167C142.494,14.644,142.456,14.694,142.393,14.732z"/>
		<polygon fill="#FFFFFF" points="140.366,16.612 140.338,16.581 140.374,16.576 		"/>
		<path fill="#FFFFFF" d="M139.117,16.136c0.007,0.044,0.021,0.091,0.035,0.134c-0.042,0.007-0.094,0.016-0.136,0.023
			C139.051,16.243,139.08,16.186,139.117,16.136z"/>
		<path fill="#FFFFFF" d="M144.496,13.36c0.006-0.077,0.045-0.131,0.115-0.164C144.576,13.252,144.534,13.308,144.496,13.36z"/>
		<path fill="#FFFFFF" d="M136.833,25.988c0.021,0.068,0.048,0.14,0.034,0.205c-0.014,0.075-0.02,0.209-0.156,0.145
			c-0.021-0.012-0.021-0.127,0-0.187c0.021-0.061,0.087-0.108,0.129-0.16L136.833,25.988z"/>
		<path fill="#FFFFFF" d="M136.508,26.667c-0.027,0.026-0.062,0.056-0.094,0.082c-0.021-0.031-0.069-0.074-0.063-0.103
			c0.008-0.026,0.058-0.067,0.096-0.07C136.502,26.568,136.523,26.608,136.508,26.667z"/>
		<path fill="#FFFFFF" d="M135.117,26.067c0.034-0.018,0.069-0.037,0.115-0.056c0.02,0.089,0.041,0.178,0.063,0.264l-0.057,0.031
			l-0.065,0.016c-0.021-0.042-0.042-0.083-0.05-0.127C135.058,26.15,135.058,26.112,135.117,26.067z"/>
		<path fill="#FFFFFF" d="M135.117,26.067c0.006,0.045,0.006,0.085,0.006,0.127c-0.059-0.033-0.107-0.066-0.167-0.103
			C135.008,26.084,135.064,26.075,135.117,26.067z"/>
		<g>
			<path fill="#87A75D" d="M130.224,21.873c0.832,0.53,1.321,1.346,1.769,2.172c0.909,1.667,1.214,3.507,1.412,5.366
				c0.038,0.374,0.101,0.736,0.188,1.096c0.107,0.437-0.109,0.631-0.517,0.488c-0.23-0.08-0.453-0.213-0.663-0.339
				c-0.809-0.477-1.715-0.774-2.435-1.429c-0.338-0.31-0.645-0.624-0.854-1.016c-0.429-0.805-0.821-1.64-1.106-2.505
				c-0.05-0.137-0.115-0.28-0.074-0.436c0.032-0.203-0.156-0.497,0.238-0.544c0.445,0.079,0.391,0.538,0.568,0.807
				c0.149,0.224,0.272,0.464,0.426,0.693c0.442,0.709,1.019,1.327,1.393,1.871c-0.346-0.583-0.97-1.173-1.411-1.899
				c-0.3-0.421-0.53-0.879-0.679-1.372c0.327-0.839,0.753-0.225,1.14-0.074c0.074,0.011,0.144,0.03,0.209,0.048
				c0.367,0.021,0.401,0.37,0.576,0.577c-0.129-0.361-0.494-0.654-0.29-1.103c0.067-0.04,0.137-0.054,0.21-0.046
				c0.53,0.162,0.537,0.715,0.819,1.064c0.279,0.415,0.359,0.905,0.53,1.36c0.15,0.147,0.23,0.351,0.381,0.507
				c-0.077,0.283,0.086,0.521,0.121,0.797c0-0.215-0.121-0.39-0.135-0.588c0.086-0.391-0.287-0.557-0.409-0.85
				c-0.052-0.298-0.06-0.6-0.122-0.898c-0.021-0.173-0.066-0.387-0.195-0.466c-0.616-0.394-0.739-1.064-0.976-1.669
				c-0.05-0.134-0.058-0.296-0.225-0.373c-0.042,0.15,0.102,0.256,0.102,0.401c0,0.15,0,0.304-0.171,0.37
				c-0.16,0.064-0.289-0.031-0.391-0.14c-0.213-0.214-0.367-0.458-0.387-0.772c-0.008-0.067,0-0.142,0.014-0.208
				c0.017-0.095,0.074-0.258,0-0.273c-0.848-0.117-0.97-0.941-1.428-1.443c-0.006-0.068,0.008-0.138,0.043-0.206
				c0.177-0.227,0.345-0.136,0.583-0.035C129.11,21.079,129.613,21.564,130.224,21.873z"/>
			<path fill="#87A75D" d="M130.962,25.383c-0.156-0.443-0.293-0.897-0.767-1.125l0.007,0.001c-0.015,0.414,0.065,0.778,0.439,1.037
				c0.17,0.122,0.164,0.32-0.025,0.429c-0.148,0.096-0.25-0.016-0.319-0.18c-0.109-0.258-0.161-0.593-0.549-0.603l0,0
				c-0.223,0.044-0.379-0.043-0.521-0.214c-0.225-0.283-0.469-0.207-0.712-0.024c-0.057,0.011-0.109-0.004-0.145-0.035
				c-0.034-0.035-0.066-0.079-0.08-0.125c-0.014-0.045-0.006-0.092,0.014-0.136c0.015-0.044,0-0.084-0.041-0.114
				c-0.035-0.073-0.06-0.15-0.107-0.214c-0.043-0.085-0.096-0.169-0.057-0.268c-0.059,0.101,0.014,0.177,0.049,0.265
				c0.049,0.08,0.066,0.17,0.073,0.261c-0.018,0.119,0,0.24-0.032,0.359c-0.014,0.026-0.027,0.048-0.041,0.073
				c-0.195,0.117-0.094,0.349-0.203,0.501c-0.236-0.358-0.333-0.769-0.4-1.188c-0.157-1.045-0.317-2.095-0.46-3.142
				c-0.095-0.702,0.121-0.886,0.785-0.581c0.847,0.394,1.695,0.81,2.354,1.513c-0.151,0.057-0.313,0.059-0.409-0.063
				c-0.404-0.511-1.063-0.588-1.538-0.968c-0.171-0.13-0.265,0.054-0.387,0.098v-0.007c0.293,0.415,0.746,0.71,0.936,1.218
				c0.069,0.198,0.198,0.176,0.352,0.097c0.157-0.081,0.341-0.167,0.456,0.022c0.123,0.195-0.143,0.284-0.184,0.438
				c-0.015,0.047-0.061,0.083-0.088,0.122c-0.056-0.014,0.008-0.001,0-0.007c0.088,0.389,0.258,0.727,0.61,0.99
				c0.196-0.283,0.067-0.433-0.101-0.589c-0.137-0.126-0.115-0.279,0-0.399c0.16-0.18,0.243,0.04,0.358,0.091
				c0.188,0.082,0.203,0.263,0.258,0.427c0.088,0.256,0.161,0.525,0.291,0.756c0.143,0.25-0.028,0.813,0.582,0.648
				c0.049,0.31,0.38,0.519,0.308,0.874C131.286,25.981,131.253,25.309,130.962,25.383z"/>
			<path fill="#FFFFFF" d="M129.306,26.146c0.61,0.754,1.141,1.563,1.678,2.366c-0.4-0.154-1.04-0.891-1.922-2.201
				C129.097,26.193,129.177,26.138,129.306,26.146z"/>
			<path fill="#FFFFFF" d="M130.962,25.383c0.08-0.11,0.182-0.302,0.297-0.056c0.094,0.195,0.15,0.36,0.409,0.293
				c0.058,0.287,0.162,0.572,0.058,0.87c0.008,0.131,0.021,0.26-0.153,0.293C131.336,26.329,131.286,25.8,130.962,25.383z"/>
			<path fill="#FFFFFF" d="M129.306,26.146c-0.087,0.058-0.167,0.114-0.244,0.165c-0.338-0.346-0.404-0.828-0.628-1.234
				c-0.077-0.133-0.149-0.246-0.286-0.308l0.041-0.031c0.032-0.125,0.102-0.174,0.225-0.148c0.038,0.039,0.066,0.075,0.102,0.114
				C128.702,25.229,128.968,25.707,129.306,26.146z"/>
			<path fill="#FFFFFF" d="M132.141,27.328c0.074,0.306,0.211,0.597,0.211,0.934c-0.388-0.4-0.455-0.625-0.332-1.071
				c0.06,0.007,0.094,0.028,0.107,0.066C132.148,27.296,132.154,27.321,132.141,27.328z"/>
			<path fill="#FFFFFF" d="M132.141,27.328c-0.041-0.048-0.086-0.092-0.121-0.138c-0.189-0.092-0.366-0.199-0.447-0.406
				c0.053-0.099,0.102-0.195,0.153-0.293C132.107,26.647,132.093,27,132.141,27.328z"/>
			<path fill="#FFFFFF" d="M130.426,26.174c0.042,0.01,0.101,0.01,0.114,0.033c0.049,0.068,0.014,0.132-0.066,0.15
				c-0.027,0.005-0.083-0.039-0.094-0.071C130.372,26.257,130.411,26.211,130.426,26.174z"/>
			<path fill="#FFFFFF" d="M131.028,27.408c0.049-0.011,0.096-0.018,0.137-0.024c0.014,0.042,0.034,0.101,0.021,0.127
				c-0.015,0.028-0.087,0.024-0.13,0.031C131.05,27.5,131.042,27.455,131.028,27.408z"/>
			<path fill="#FFFFFF" d="M131.063,28.862c-0.014,0.021-0.021,0.049-0.035,0.058c-0.014,0.007-0.045,0.002-0.066,0
				C130.97,28.855,131.009,28.836,131.063,28.862z"/>
			<path fill="#FFFFFF" d="M128.142,24.208c-0.144-0.263-0.28-0.535-0.211-0.961c0.297,0.314,0.175,0.658,0.354,0.89
				C128.263,24.211,128.214,24.236,128.142,24.208z"/>
			<path fill="#FFFFFF" d="M128.534,22.853c0.224,0.178,0.318,0.349,0.36,0.681C128.628,23.335,128.472,23.21,128.534,22.853z"/>
			<path fill="#FFFFFF" d="M129.748,24.942c-0.027-0.04-0.049-0.078-0.076-0.118c-0.059-0.077-0.094-0.167-0.039-0.255
				c0.039-0.068,0.115-0.056,0.182-0.02c0.096,0.06,0.115,0.152,0.077,0.243C129.863,24.853,129.801,24.893,129.748,24.942
				L129.748,24.942z"/>
			<path fill="#FFFFFF" d="M130.202,24.26c-0.066-0.126-0.163-0.265,0.057-0.327c0.052-0.015,0.167,0.054,0.167,0.087
				c0.007,0.143-0.137,0.176-0.23,0.239L130.202,24.26z"/>
			<path fill="#FFFFFF" d="M128.413,24.589c-0.07,0.048-0.143,0.102-0.225,0.148c-0.097-0.085-0.129-0.191-0.09-0.32
				c0.115-0.115,0.199-0.096,0.266,0.048C128.386,24.508,128.399,24.551,128.413,24.589z"/>
			<path fill="#FFFFFF" d="M129.361,22.823c-0.042,0.028-0.08,0.055-0.121,0.073c-0.115,0.037-0.195-0.003-0.252-0.103
				c-0.007-0.021-0.015-0.058,0-0.07c0.095-0.097,0.164-0.008,0.252,0.029c0.041,0.021,0.079,0.055,0.121,0.078V22.823z"/>
			<path fill="#FFFFFF" d="M128.364,24.466c-0.088-0.012-0.182-0.032-0.266-0.051c0.014-0.067,0.029-0.136,0.043-0.208
				c0.041-0.022,0.094-0.048,0.143-0.071c0.052,0.083,0.107,0.164,0.167,0.244C128.419,24.403,128.392,24.437,128.364,24.466z"/>
			<path fill="#FFFFFF" d="M128.644,24.308c0,0.031,0.006,0.083-0.008,0.09c-0.035,0.021-0.087,0.028-0.129,0.017
				c-0.073-0.017-0.073-0.048,0-0.073C128.549,24.324,128.595,24.316,128.644,24.308z"/>
			<path fill="#FFFFFF" d="M127.89,20.933c-0.08,0.011-0.195-0.037-0.174-0.066c0.107-0.146,0.1,0.056,0.174,0.073V20.933z"/>
			<path fill="#FFFFFF" d="M131.489,26.055c0.014-0.007,0.027-0.025,0.042-0.021c0.014,0.003,0.035,0.025,0.035,0.04
				c0.014,0.059-0.014,0.073-0.063,0.035C131.495,26.097,131.495,26.072,131.489,26.055z"/>
		</g>
	</g>
</g>
</svg>
